<svg width="532" height="48" viewBox="0 0 532 48" fill="none" xmlns="http://www.w3.org/2000/svg">
<path d="M1.875 9.90909H11.7045L18.4659 26.3864H18.8068L25.5682 9.90909H35.3977V39H27.6705V22.1818H27.4432L20.9659 38.7727H16.3068L9.82955 22.0682H9.60227V39H1.875V9.90909ZM39.2543 39V17.1818H47.0952V39H39.2543ZM43.1747 14.9091C42.1141 14.9091 41.205 14.5587 40.4474 13.858C39.6899 13.1572 39.3111 12.3144 39.3111 11.3295C39.3111 10.3447 39.6899 9.50189 40.4474 8.80114C41.205 8.10038 42.1141 7.75 43.1747 7.75C44.2448 7.75 45.1539 8.10038 45.902 8.80114C46.6596 9.50189 47.0384 10.3447 47.0384 11.3295C47.0384 12.3144 46.6596 13.1572 45.902 13.858C45.1539 14.5587 44.2448 14.9091 43.1747 14.9091ZM58.9311 26.7273V39H51.0902V17.1818H58.5334V21.3295H58.7607C59.2341 19.947 60.0675 18.8627 61.2607 18.0767C62.4633 17.2907 63.8648 16.8977 65.4652 16.8977C67.0088 16.8977 68.3487 17.2528 69.4851 17.9631C70.6309 18.6638 71.5163 19.6297 72.1413 20.8608C72.7758 22.0919 73.0883 23.4981 73.0788 25.0795V39H65.2379V26.7273C65.2474 25.6477 64.9728 24.8002 64.4141 24.1847C63.8648 23.5691 63.0978 23.2614 62.1129 23.2614C61.469 23.2614 60.9055 23.4034 60.4226 23.6875C59.9491 23.9621 59.5845 24.3598 59.3288 24.8807C59.0732 25.392 58.9406 26.0076 58.9311 26.7273ZM84.7905 26.7273V39H76.9496V9.90909H84.5064V21.3295H84.7337C85.2261 19.9375 86.0452 18.8532 87.1911 18.0767C88.3369 17.2907 89.7147 16.8977 91.3246 16.8977C92.8681 16.8977 94.2081 17.2481 95.3445 17.9489C96.4903 18.6496 97.3757 19.6155 98.0007 20.8466C98.6352 22.0777 98.9477 23.4886 98.9382 25.0795V39H91.0973V26.7273C91.1068 25.6477 90.8369 24.8002 90.2876 24.1847C89.7479 23.5691 88.9761 23.2614 87.9723 23.2614C87.3378 23.2614 86.7791 23.4034 86.2962 23.6875C85.8227 23.9621 85.4534 24.3598 85.1882 24.8807C84.9325 25.392 84.8 26.0076 84.7905 26.7273ZM108.888 39.3409C107.496 39.3409 106.265 39.1136 105.195 38.6591C104.135 38.1951 103.301 37.4943 102.695 36.5568C102.089 35.6193 101.786 34.4261 101.786 32.9773C101.786 31.7841 101.99 30.7661 102.397 29.9233C102.804 29.071 103.372 28.375 104.102 27.8352C104.831 27.2955 105.678 26.8835 106.644 26.5994C107.62 26.3153 108.671 26.1307 109.798 26.0455C111.019 25.9508 111.999 25.8371 112.738 25.7045C113.486 25.5625 114.026 25.3684 114.357 25.1222C114.689 24.8665 114.854 24.5303 114.854 24.1136V24.0568C114.854 23.4886 114.637 23.053 114.201 22.75C113.765 22.447 113.207 22.2955 112.525 22.2955C111.777 22.2955 111.166 22.4612 110.692 22.7926C110.228 23.1146 109.949 23.6117 109.854 24.2841H102.638C102.733 22.9583 103.155 21.7367 103.903 20.6193C104.66 19.4924 105.763 18.5928 107.212 17.9205C108.661 17.2386 110.47 16.8977 112.638 16.8977C114.201 16.8977 115.603 17.0824 116.843 17.4517C118.084 17.8116 119.139 18.3182 120.011 18.9716C120.882 19.6155 121.545 20.3731 121.999 21.2443C122.463 22.1061 122.695 23.0436 122.695 24.0568V39H115.366V35.9318H115.195C114.76 36.7462 114.229 37.4044 113.604 37.9062C112.989 38.4081 112.283 38.7727 111.488 39C110.702 39.2273 109.835 39.3409 108.888 39.3409ZM111.445 34.3977C112.042 34.3977 112.601 34.2746 113.121 34.0284C113.652 33.7822 114.083 33.4271 114.414 32.9631C114.746 32.4991 114.911 31.9356 114.911 31.2727V29.4545C114.703 29.5398 114.48 29.6203 114.244 29.696C114.016 29.7718 113.77 29.8428 113.505 29.9091C113.249 29.9754 112.975 30.0369 112.681 30.0938C112.397 30.1506 112.099 30.2027 111.786 30.25C111.18 30.3447 110.683 30.5009 110.295 30.7188C109.916 30.9271 109.632 31.1875 109.442 31.5C109.263 31.803 109.173 32.1439 109.173 32.5227C109.173 33.1288 109.386 33.5928 109.812 33.9148C110.238 34.2367 110.782 34.3977 111.445 34.3977ZM142.251 9.90909V39H134.411V9.90909H142.251ZM146.246 39V17.1818H154.087V39H146.246ZM150.167 14.9091C149.106 14.9091 148.197 14.5587 147.44 13.858C146.682 13.1572 146.303 12.3144 146.303 11.3295C146.303 10.3447 146.682 9.50189 147.44 8.80114C148.197 8.10038 149.106 7.75 150.167 7.75C151.237 7.75 152.146 8.10038 152.894 8.80114C153.652 9.50189 154.031 10.3447 154.031 11.3295C154.031 12.3144 153.652 13.1572 152.894 13.858C152.146 14.5587 151.237 14.9091 150.167 14.9091ZM178.026 24.2841H170.81C170.772 23.839 170.616 23.4555 170.341 23.1335C170.066 22.8116 169.711 22.5653 169.276 22.3949C168.849 22.215 168.376 22.125 167.855 22.125C167.183 22.125 166.605 22.2481 166.122 22.4943C165.639 22.7405 165.402 23.0909 165.412 23.5455C165.402 23.8674 165.54 24.1657 165.824 24.4403C166.117 24.715 166.681 24.928 167.514 25.0795L171.946 25.875C174.181 26.2822 175.843 26.9687 176.932 27.9347C178.03 28.8911 178.584 30.1742 178.594 31.7841C178.584 33.3371 178.12 34.6866 177.202 35.8324C176.293 36.9687 175.047 37.8494 173.466 38.4744C171.894 39.09 170.099 39.3977 168.082 39.3977C164.749 39.3977 162.14 38.7159 160.256 37.3523C158.381 35.9886 157.334 34.1894 157.116 31.9545H164.901C165.005 32.6458 165.346 33.1809 165.923 33.5597C166.51 33.929 167.249 34.1136 168.139 34.1136C168.859 34.1136 169.451 33.9905 169.915 33.7443C170.388 33.4981 170.63 33.1477 170.639 32.6932C170.63 32.2765 170.421 31.9451 170.014 31.6989C169.616 31.4527 168.991 31.2538 168.139 31.1023L164.276 30.4205C162.05 30.0322 160.384 29.2936 159.276 28.2045C158.168 27.1155 157.618 25.714 157.628 24C157.618 22.4848 158.016 21.2017 158.821 20.1506C159.635 19.09 160.795 18.285 162.301 17.7358C163.816 17.1771 165.611 16.8977 167.685 16.8977C170.838 16.8977 173.324 17.5511 175.142 18.858C176.97 20.1648 177.931 21.9735 178.026 24.2841ZM194.609 17.1818V22.8636H180.234V17.1818H194.609ZM183.018 11.9545H190.859V31.983C190.859 32.286 190.911 32.5417 191.016 32.75C191.12 32.9489 191.281 33.1004 191.499 33.2045C191.716 33.2992 191.996 33.3466 192.337 33.3466C192.573 33.3466 192.848 33.3182 193.161 33.2614C193.482 33.2045 193.719 33.1572 193.871 33.1193L195.007 38.6307C194.657 38.7348 194.155 38.8627 193.501 39.0142C192.857 39.1657 192.09 39.2652 191.2 39.3125C189.401 39.4072 187.891 39.2225 186.669 38.7585C185.447 38.285 184.529 37.5417 183.913 36.5284C183.298 35.5152 183 34.2462 183.018 32.7216V11.9545ZM203.888 39.3409C202.496 39.3409 201.265 39.1136 200.195 38.6591C199.135 38.1951 198.301 37.4943 197.695 36.5568C197.089 35.6193 196.786 34.4261 196.786 32.9773C196.786 31.7841 196.99 30.7661 197.397 29.9233C197.804 29.071 198.372 28.375 199.102 27.8352C199.831 27.2955 200.678 26.8835 201.644 26.5994C202.62 26.3153 203.671 26.1307 204.798 26.0455C206.019 25.9508 206.999 25.8371 207.738 25.7045C208.486 25.5625 209.026 25.3684 209.357 25.1222C209.689 24.8665 209.854 24.5303 209.854 24.1136V24.0568C209.854 23.4886 209.637 23.053 209.201 22.75C208.765 22.447 208.207 22.2955 207.525 22.2955C206.777 22.2955 206.166 22.4612 205.692 22.7926C205.228 23.1146 204.949 23.6117 204.854 24.2841H197.638C197.733 22.9583 198.155 21.7367 198.903 20.6193C199.66 19.4924 200.763 18.5928 202.212 17.9205C203.661 17.2386 205.47 16.8977 207.638 16.8977C209.201 16.8977 210.603 17.0824 211.843 17.4517C213.084 17.8116 214.139 18.3182 215.011 18.9716C215.882 19.6155 216.545 20.3731 216.999 21.2443C217.463 22.1061 217.695 23.0436 217.695 24.0568V39H210.366V35.9318H210.195C209.76 36.7462 209.229 37.4044 208.604 37.9062C207.989 38.4081 207.283 38.7727 206.488 39C205.702 39.2273 204.835 39.3409 203.888 39.3409ZM206.445 34.3977C207.042 34.3977 207.601 34.2746 208.121 34.0284C208.652 33.7822 209.083 33.4271 209.414 32.9631C209.746 32.4991 209.911 31.9356 209.911 31.2727V29.4545C209.703 29.5398 209.48 29.6203 209.244 29.696C209.016 29.7718 208.77 29.8428 208.505 29.9091C208.249 29.9754 207.975 30.0369 207.681 30.0938C207.397 30.1506 207.099 30.2027 206.786 30.25C206.18 30.3447 205.683 30.5009 205.295 30.7188C204.916 30.9271 204.632 31.1875 204.442 31.5C204.263 31.803 204.173 32.1439 204.173 32.5227C204.173 33.1288 204.386 33.5928 204.812 33.9148C205.238 34.2367 205.782 34.3977 206.445 34.3977ZM237.308 39.2841C235.755 39.2841 234.325 38.8769 233.018 38.0625C231.721 37.2481 230.679 36.0123 229.893 34.3551C229.117 32.6979 228.729 30.6098 228.729 28.0909C228.729 25.4583 229.136 23.3182 229.95 21.6705C230.774 20.0227 231.835 18.8153 233.132 18.0483C234.439 17.2812 235.812 16.8977 237.251 16.8977C238.331 16.8977 239.278 17.0871 240.092 17.4659C240.907 17.8352 241.589 18.3324 242.138 18.9574C242.687 19.5729 243.104 20.25 243.388 20.9886H243.501V9.90909H251.342V39H243.558V35.4205H243.388C243.085 36.1591 242.649 36.822 242.081 37.4091C241.522 37.9867 240.84 38.446 240.036 38.7869C239.24 39.1184 238.331 39.2841 237.308 39.2841ZM240.206 33.2614C240.926 33.2614 241.541 33.053 242.053 32.6364C242.573 32.2102 242.971 31.6136 243.246 30.8466C243.53 30.0701 243.672 29.1515 243.672 28.0909C243.672 27.0114 243.53 26.0881 243.246 25.321C242.971 24.5445 242.573 23.9527 242.053 23.5455C241.541 23.1288 240.926 22.9205 240.206 22.9205C239.486 22.9205 238.871 23.1288 238.359 23.5455C237.857 23.9527 237.469 24.5445 237.195 25.321C236.929 26.0881 236.797 27.0114 236.797 28.0909C236.797 29.1705 236.929 30.0985 237.195 30.875C237.469 31.642 237.857 32.2339 238.359 32.6506C238.871 33.0578 239.486 33.2614 240.206 33.2614ZM265.646 39.3977C263.317 39.3977 261.309 38.9527 259.624 38.0625C257.947 37.1629 256.655 35.875 255.746 34.1989C254.846 32.5133 254.396 30.4962 254.396 28.1477C254.396 25.8939 254.851 23.9242 255.76 22.2386C256.669 20.553 257.952 19.2415 259.609 18.304C261.267 17.3665 263.222 16.8977 265.476 16.8977C267.124 16.8977 268.615 17.1534 269.95 17.6648C271.286 18.1761 272.427 18.9195 273.374 19.8949C274.321 20.8608 275.05 22.035 275.561 23.4176C276.072 24.8002 276.328 26.358 276.328 28.0909V29.9091H256.839V25.5909H269.112C269.103 24.9659 268.942 24.4167 268.629 23.9432C268.326 23.4602 267.914 23.0862 267.393 22.821C266.882 22.5464 266.3 22.4091 265.646 22.4091C265.012 22.4091 264.429 22.5464 263.899 22.821C263.369 23.0862 262.943 23.4555 262.621 23.929C262.308 24.4025 262.143 24.9564 262.124 25.5909V30.25C262.124 30.9508 262.27 31.5758 262.564 32.125C262.857 32.6742 263.279 33.1051 263.828 33.4176C264.377 33.7301 265.04 33.8864 265.817 33.8864C266.357 33.8864 266.849 33.8106 267.294 33.6591C267.749 33.5076 268.137 33.2898 268.459 33.0057C268.781 32.7121 269.018 32.3617 269.169 31.9545H276.328C276.082 33.4697 275.5 34.786 274.581 35.9034C273.662 37.0114 272.446 37.8731 270.93 38.4886C269.425 39.0947 267.663 39.3977 265.646 39.3977ZM286.587 16.2727V9.90909H311.871V16.2727H303.121V39H295.337V16.2727H286.587ZM322.248 39.3977C319.918 39.3977 317.911 38.9527 316.225 38.0625C314.549 37.1629 313.256 35.875 312.347 34.1989C311.448 32.5133 310.998 30.4962 310.998 28.1477C310.998 25.8939 311.452 23.9242 312.362 22.2386C313.271 20.553 314.554 19.2415 316.211 18.304C317.868 17.3665 319.824 16.8977 322.077 16.8977C323.725 16.8977 325.217 17.1534 326.552 17.6648C327.887 18.1761 329.028 18.9195 329.975 19.8949C330.922 20.8608 331.651 22.035 332.163 23.4176C332.674 24.8002 332.93 26.358 332.93 28.0909V29.9091H313.441V25.5909H325.714C325.704 24.9659 325.543 24.4167 325.231 23.9432C324.928 23.4602 324.516 23.0862 323.995 22.821C323.484 22.5464 322.901 22.4091 322.248 22.4091C321.613 22.4091 321.031 22.5464 320.501 22.821C319.97 23.0862 319.544 23.4555 319.222 23.929C318.91 24.4025 318.744 24.9564 318.725 25.5909V30.25C318.725 30.9508 318.872 31.5758 319.165 32.125C319.459 32.6742 319.88 33.1051 320.43 33.4176C320.979 33.7301 321.642 33.8864 322.418 33.8864C322.958 33.8864 323.451 33.8106 323.896 33.6591C324.35 33.5076 324.738 33.2898 325.06 33.0057C325.382 32.7121 325.619 32.3617 325.771 31.9545H332.93C332.683 33.4697 332.101 34.786 331.183 35.9034C330.264 37.0114 329.047 37.8731 327.532 38.4886C326.026 39.0947 324.265 39.3977 322.248 39.3977ZM346.641 39.3977C344.273 39.3977 342.247 38.929 340.561 37.9915C338.875 37.0445 337.583 35.7282 336.683 34.0426C335.784 32.3475 335.334 30.3826 335.334 28.1477C335.334 25.9129 335.784 23.9527 336.683 22.267C337.583 20.572 338.875 19.2557 340.561 18.3182C342.247 17.3712 344.273 16.8977 346.641 16.8977C348.781 16.8977 350.632 17.286 352.195 18.0625C353.767 18.8295 354.983 19.9186 355.845 21.3295C356.707 22.7311 357.143 24.3788 357.152 26.2727H349.879C349.775 25.1269 349.444 24.2557 348.885 23.6591C348.336 23.053 347.625 22.75 346.754 22.75C346.072 22.75 345.476 22.9489 344.964 23.3466C344.453 23.7348 344.055 24.3267 343.771 25.1222C343.487 25.9081 343.345 26.8977 343.345 28.0909C343.345 29.2841 343.487 30.2784 343.771 31.0739C344.055 31.8598 344.453 32.4517 344.964 32.8494C345.476 33.2377 346.072 33.4318 346.754 33.4318C347.332 33.4318 347.843 33.2992 348.288 33.0341C348.733 32.7595 349.093 32.3617 349.368 31.8409C349.652 31.3106 349.822 30.6667 349.879 29.9091H357.152C357.124 31.8314 356.683 33.5076 355.831 34.9375C354.979 36.358 353.771 37.4564 352.209 38.233C350.656 39.0095 348.8 39.3977 346.641 39.3977ZM368.228 26.7273V39H360.387V17.1818H367.83V21.3295H368.058C368.531 19.947 369.364 18.8627 370.558 18.0767C371.76 17.2907 373.162 16.8977 374.762 16.8977C376.306 16.8977 377.646 17.2528 378.782 17.9631C379.928 18.6638 380.813 19.6297 381.438 20.8608C382.073 22.0919 382.385 23.4981 382.376 25.0795V39H374.535V26.7273C374.544 25.6477 374.27 24.8002 373.711 24.1847C373.162 23.5691 372.395 23.2614 371.41 23.2614C370.766 23.2614 370.202 23.4034 369.719 23.6875C369.246 23.9621 368.881 24.3598 368.626 24.8807C368.37 25.392 368.237 26.0076 368.228 26.7273ZM396.758 39.3977C394.39 39.3977 392.364 38.929 390.678 37.9915C388.993 37.0445 387.7 35.7282 386.8 34.0426C385.901 32.3475 385.451 30.3826 385.451 28.1477C385.451 25.9129 385.901 23.9527 386.8 22.267C387.7 20.572 388.993 19.2557 390.678 18.3182C392.364 17.3712 394.39 16.8977 396.758 16.8977C399.125 16.8977 401.152 17.3712 402.837 18.3182C404.523 19.2557 405.816 20.572 406.715 22.267C407.615 23.9527 408.065 25.9129 408.065 28.1477C408.065 30.3826 407.615 32.3475 406.715 34.0426C405.816 35.7282 404.523 37.0445 402.837 37.9915C401.152 38.929 399.125 39.3977 396.758 39.3977ZM396.815 33.6023C397.478 33.6023 398.05 33.3797 398.533 32.9347C399.016 32.4896 399.39 31.8551 399.656 31.0312C399.921 30.2074 400.053 29.2273 400.053 28.0909C400.053 26.9451 399.921 25.965 399.656 25.1506C399.39 24.3267 399.016 23.6922 398.533 23.2472C398.05 22.8021 397.478 22.5795 396.815 22.5795C396.114 22.5795 395.513 22.8021 395.011 23.2472C394.509 23.6922 394.125 24.3267 393.86 25.1506C393.595 25.965 393.462 26.9451 393.462 28.0909C393.462 29.2273 393.595 30.2074 393.86 31.0312C394.125 31.8551 394.509 32.4896 395.011 32.9347C395.513 33.3797 396.114 33.6023 396.815 33.6023ZM419.087 9.90909V39H411.246V9.90909H419.087ZM433.594 39.3977C431.226 39.3977 429.2 38.929 427.514 37.9915C425.829 37.0445 424.536 35.7282 423.636 34.0426C422.737 32.3475 422.287 30.3826 422.287 28.1477C422.287 25.9129 422.737 23.9527 423.636 22.267C424.536 20.572 425.829 19.2557 427.514 18.3182C429.2 17.3712 431.226 16.8977 433.594 16.8977C435.961 16.8977 437.988 17.3712 439.673 18.3182C441.359 19.2557 442.652 20.572 443.551 22.267C444.451 23.9527 444.901 25.9129 444.901 28.1477C444.901 30.3826 444.451 32.3475 443.551 34.0426C442.652 35.7282 441.359 37.0445 439.673 37.9915C437.988 38.929 435.961 39.3977 433.594 39.3977ZM433.651 33.6023C434.313 33.6023 434.886 33.3797 435.369 32.9347C435.852 32.4896 436.226 31.8551 436.491 31.0312C436.757 30.2074 436.889 29.2273 436.889 28.0909C436.889 26.9451 436.757 25.965 436.491 25.1506C436.226 24.3267 435.852 23.6922 435.369 23.2472C434.886 22.8021 434.313 22.5795 433.651 22.5795C432.95 22.5795 432.348 22.8021 431.847 23.2472C431.345 23.6922 430.961 24.3267 430.696 25.1506C430.431 25.965 430.298 26.9451 430.298 28.0909C430.298 29.2273 430.431 30.2074 430.696 31.0312C430.961 31.8551 431.345 32.4896 431.847 32.9347C432.348 33.3797 432.95 33.6023 433.651 33.6023ZM458.594 47.6364C456.406 47.6364 454.531 47.3239 452.969 46.6989C451.416 46.0833 450.208 45.2311 449.347 44.142C448.494 43.0625 448.016 41.822 447.912 40.4205H455.469C455.545 40.8845 455.734 41.2585 456.037 41.5426C456.34 41.8267 456.728 42.0303 457.202 42.1534C457.685 42.286 458.224 42.3523 458.821 42.3523C459.834 42.3523 460.672 42.1061 461.335 41.6136C462.008 41.1212 462.344 40.2311 462.344 38.9432V35.25H462.116C461.832 35.9886 461.397 36.6184 460.81 37.1392C460.223 37.6506 459.517 38.0436 458.693 38.3182C457.869 38.5833 456.965 38.7159 455.98 38.7159C454.427 38.7159 452.997 38.3561 451.69 37.6364C450.393 36.9167 449.351 35.7756 448.565 34.2131C447.789 32.6506 447.401 30.6098 447.401 28.0909C447.401 25.4583 447.808 23.3182 448.622 21.6705C449.446 20.0227 450.507 18.8153 451.804 18.0483C453.111 17.2812 454.484 16.8977 455.923 16.8977C457.003 16.8977 457.95 17.0871 458.764 17.4659C459.579 17.8352 460.26 18.3324 460.81 18.9574C461.359 19.5729 461.776 20.25 462.06 20.9886H462.23V17.1818H470.071V38.9432C470.071 40.7898 469.593 42.357 468.636 43.6449C467.689 44.9422 466.354 45.9318 464.631 46.6136C462.907 47.2955 460.895 47.6364 458.594 47.6364ZM458.878 33.1477C459.598 33.1477 460.213 32.9489 460.724 32.5511C461.245 32.1439 461.643 31.5663 461.918 30.8182C462.202 30.0606 462.344 29.1515 462.344 28.0909C462.344 27.0114 462.202 26.0881 461.918 25.321C461.643 24.5445 461.245 23.9527 460.724 23.5455C460.213 23.1288 459.598 22.9205 458.878 22.9205C458.158 22.9205 457.543 23.1288 457.031 23.5455C456.529 23.9527 456.141 24.5445 455.866 25.321C455.601 26.0881 455.469 27.0114 455.469 28.0909C455.469 29.1705 455.601 30.089 455.866 30.8466C456.141 31.5947 456.529 32.1676 457.031 32.5653C457.543 32.9536 458.158 33.1477 458.878 33.1477ZM474.059 39V17.1818H481.9V39H474.059ZM477.979 14.9091C476.919 14.9091 476.01 14.5587 475.252 13.858C474.495 13.1572 474.116 12.3144 474.116 11.3295C474.116 10.3447 474.495 9.50189 475.252 8.80114C476.01 8.10038 476.919 7.75 477.979 7.75C479.049 7.75 479.959 8.10038 480.707 8.80114C481.464 9.50189 481.843 10.3447 481.843 11.3295C481.843 12.3144 481.464 13.1572 480.707 13.858C479.959 14.5587 479.049 14.9091 477.979 14.9091ZM491.974 39.3409C490.582 39.3409 489.351 39.1136 488.281 38.6591C487.221 38.1951 486.387 37.4943 485.781 36.5568C485.175 35.6193 484.872 34.4261 484.872 32.9773C484.872 31.7841 485.076 30.7661 485.483 29.9233C485.89 29.071 486.458 28.375 487.188 27.8352C487.917 27.2955 488.764 26.8835 489.73 26.5994C490.705 26.3153 491.757 26.1307 492.884 26.0455C494.105 25.9508 495.085 25.8371 495.824 25.7045C496.572 25.5625 497.112 25.3684 497.443 25.1222C497.775 24.8665 497.94 24.5303 497.94 24.1136V24.0568C497.94 23.4886 497.723 23.053 497.287 22.75C496.851 22.447 496.293 22.2955 495.611 22.2955C494.863 22.2955 494.252 22.4612 493.778 22.7926C493.314 23.1146 493.035 23.6117 492.94 24.2841H485.724C485.819 22.9583 486.241 21.7367 486.989 20.6193C487.746 19.4924 488.849 18.5928 490.298 17.9205C491.747 17.2386 493.556 16.8977 495.724 16.8977C497.287 16.8977 498.688 17.0824 499.929 17.4517C501.17 17.8116 502.225 18.3182 503.097 18.9716C503.968 19.6155 504.631 20.3731 505.085 21.2443C505.549 22.1061 505.781 23.0436 505.781 24.0568V39H498.452V35.9318H498.281C497.846 36.7462 497.315 37.4044 496.69 37.9062C496.075 38.4081 495.369 38.7727 494.574 39C493.788 39.2273 492.921 39.3409 491.974 39.3409ZM494.531 34.3977C495.128 34.3977 495.687 34.2746 496.207 34.0284C496.738 33.7822 497.169 33.4271 497.5 32.9631C497.831 32.4991 497.997 31.9356 497.997 31.2727V29.4545C497.789 29.5398 497.566 29.6203 497.33 29.696C497.102 29.7718 496.856 29.8428 496.591 29.9091C496.335 29.9754 496.061 30.0369 495.767 30.0938C495.483 30.1506 495.185 30.2027 494.872 30.25C494.266 30.3447 493.769 30.5009 493.381 30.7188C493.002 30.9271 492.718 31.1875 492.528 31.5C492.348 31.803 492.259 32.1439 492.259 32.5227C492.259 33.1288 492.472 33.5928 492.898 33.9148C493.324 34.2367 493.868 34.3977 494.531 34.3977ZM529.471 24.2841H522.255C522.217 23.839 522.061 23.4555 521.786 23.1335C521.512 22.8116 521.156 22.5653 520.721 22.3949C520.295 22.215 519.821 22.125 519.3 22.125C518.628 22.125 518.05 22.2481 517.567 22.4943C517.085 22.7405 516.848 23.0909 516.857 23.5455C516.848 23.8674 516.985 24.1657 517.269 24.4403C517.563 24.715 518.126 24.928 518.96 25.0795L523.391 25.875C525.626 26.2822 527.288 26.9687 528.377 27.9347C529.476 28.8911 530.03 30.1742 530.039 31.7841C530.03 33.3371 529.566 34.6866 528.647 35.8324C527.738 36.9687 526.493 37.8494 524.911 38.4744C523.339 39.09 521.545 39.3977 519.528 39.3977C516.194 39.3977 513.585 38.7159 511.701 37.3523C509.826 35.9886 508.78 34.1894 508.562 31.9545H516.346C516.45 32.6458 516.791 33.1809 517.369 33.5597C517.956 33.929 518.694 34.1136 519.585 34.1136C520.304 34.1136 520.896 33.9905 521.36 33.7443C521.834 33.4981 522.075 33.1477 522.085 32.6932C522.075 32.2765 521.867 31.9451 521.46 31.6989C521.062 31.4527 520.437 31.2538 519.585 31.1023L515.721 30.4205C513.496 30.0322 511.829 29.2936 510.721 28.2045C509.613 27.1155 509.064 25.714 509.073 24C509.064 22.4848 509.461 21.2017 510.266 20.1506C511.081 19.09 512.241 18.285 513.746 17.7358C515.262 17.1771 517.056 16.8977 519.13 16.8977C522.283 16.8977 524.769 17.5511 526.587 18.858C528.415 20.1648 529.376 21.9735 529.471 24.2841Z" fill="#4EA8DE"/>
</svg>
